<svg width="652" height="217" viewBox="0 0 652 217" fill="none" xmlns="http://www.w3.org/2000/svg">
<g clip-path="url(#clip0_10_39)">
<path d="M278.995 114.173C278.995 145.267 254.828 168.179 225.169 168.179C195.509 168.179 171.342 145.267 171.342 114.173C171.342 82.8608 195.509 60.1678 225.169 60.1678C254.828 60.1678 278.995 82.8608 278.995 114.173ZM255.433 114.173C255.433 94.743 241.425 81.4486 225.169 81.4486C208.912 81.4486 194.905 94.743 194.905 114.173C194.905 133.409 208.912 146.898 225.169 146.898C241.425 146.898 255.433 133.384 255.433 114.173Z" fill="#EA4335"/>
<path d="M395.116 114.173C395.116 145.267 370.948 168.179 341.289 168.179C311.63 168.179 287.462 145.267 287.462 114.173C287.462 82.8852 311.63 60.1678 341.289 60.1678C370.948 60.1678 395.116 82.8608 395.116 114.173ZM371.553 114.173C371.553 94.743 357.546 81.4486 341.289 81.4486C325.032 81.4486 311.025 94.743 311.025 114.173C311.025 133.409 325.032 146.898 341.289 146.898C357.546 146.898 371.553 133.384 371.553 114.173Z" fill="#FBBC05"/>
<path d="M506.398 63.4306V160.387C506.398 200.27 483.029 216.56 455.402 216.56C429.396 216.56 413.744 199.053 407.841 184.736L428.355 176.141C432.008 184.931 440.959 195.303 455.378 195.303C473.062 195.303 484.021 184.322 484.021 163.65V155.883H483.198C477.924 162.432 467.764 168.154 454.942 168.154C428.114 168.154 403.535 144.633 403.535 114.368C403.535 83.8835 428.114 60.1678 454.942 60.1678C467.74 60.1678 477.9 65.8898 483.198 72.2448H484.021V63.4549H506.398V63.4306ZM485.69 114.368C485.69 95.3517 473.086 81.4486 457.047 81.4486C440.79 81.4486 427.17 95.3517 427.17 114.368C427.17 133.19 440.79 146.898 457.047 146.898C473.086 146.898 485.69 133.19 485.69 114.368Z" fill="#4285F4"/>
<path d="M543.291 6.60068V164.867H520.309V6.60068H543.291Z" fill="#34A853"/>
<path d="M632.849 131.948L651.138 144.22C645.235 153.009 631.01 168.154 606.431 168.154C575.95 168.154 553.185 144.439 553.185 114.149C553.185 82.033 576.143 60.1435 603.794 60.1435C631.639 60.1435 645.259 82.4469 649.71 94.4995L652.154 100.635L580.425 130.536C585.917 141.371 594.456 146.898 606.431 146.898C618.43 146.898 626.752 140.957 632.849 131.948ZM576.554 112.518L624.503 92.4785C621.866 85.7339 613.931 81.0346 604.593 81.0346C592.618 81.0346 575.95 91.675 576.554 112.518V112.518Z" fill="#EA4335"/>
<path d="M84.3482 100.124V77.2119H161.06C161.81 81.2051 162.197 85.9287 162.197 91.042C162.197 108.232 157.528 129.489 142.481 144.633C127.845 159.973 109.145 168.154 84.3723 168.154C38.4563 168.154 -0.153809 130.511 -0.153809 84.2974C-0.153809 38.0835 38.4563 0.440445 84.3723 0.440445C109.774 0.440445 127.869 10.4721 141.465 23.5474L125.402 39.7149C115.652 30.5111 102.444 23.3526 84.3482 23.3526C50.8183 23.3526 24.5944 50.5501 24.5944 84.2974C24.5944 118.045 50.8183 145.242 84.3482 145.242C106.097 145.242 118.483 136.452 126.418 128.466C132.853 121.989 137.086 112.737 138.756 100.1L84.3482 100.124Z" fill="#4285F4"/>
</g>
<defs>
<clipPath id="clip0_10_39">
<rect width="652" height="217" fill="white"/>
</clipPath>
</defs>
</svg>
